<svg xmlns="http://www.w3.org/2000/svg" xmlns:xlink="http://www.w3.org/1999/xlink" version="1.1" width="512" height="512" x="0" y="0" viewBox="0 0 64 64" style="enable-background:new 0 0 512 512" xml:space="preserve" class=""><g><path d="M48 51H17a1 1 0 0 1 0-2h31a1 1 0 0 1 0 2zm-19 2H19v8a1 1 0 0 0 1.707.707L24 58.414l3.293 3.293A1 1 0 0 0 29 61zM54 6v46a3.999 3.999 0 0 1-4 4H31v-2h19a2.006 2.006 0 0 0 2-2v-6H16a4 4 0 0 0 0 8h1v2h-1a6.005 6.005 0 0 1-6-6V8a6.005 6.005 0 0 1 6-6h34a3.999 3.999 0 0 1 4 4zM18 21a5.983 5.983 0 0 0 3.753 5.559l1.247.505V31h18v-3.936l1.247-.505a5.993 5.993 0 0 0-2.21-11.552 6.044 6.044 0 0 0-.805.055l-1.341.18-.666-1.179a5.987 5.987 0 0 0-10.45 0l-.666 1.178-1.34-.18A5.963 5.963 0 0 0 18 21zm23 15v-3H23v3a1.001 1.001 0 0 0 1 1h16a1.001 1.001 0 0 0 1-1z" data-name="35-Recipe Book" fill="#fdc073" opacity="1" data-original="#000000" class=""/></g></svg>